<svg viewBox="0 0 64 65" fill="#fff" fill-rule="evenodd" stroke="#000" stroke-linecap="round" stroke-linejoin="round" width="300" height="300" font-family="Roboto" font-size="14px" text-anchor="middle" xmlns="http://www.w3.org/2000/svg" xmlns:xlink="http://www.w3.org/1999/xlink"><defs xmlns="http://www.w3.org/1999/xhtml"><style type="text/css"></style></defs><use xlink:href="#A" x=".5" y=".5"/><symbol id="A" overflow="visible"><path d="M26.636.455c.92-.65 1.732-.54 2.707 0l8.175 4.7c.27.162.758.054 1.03-.054l8-4.646c.92-.54 1.678-.65 2.6-.054l12.288 7.092c.866.487 1.245 1.137 1.245 2.1v14.292c0 .92-.325 1.516-1.137 2.003l-7.254 4.17c1.732 1.408 1.732 1.408 1.732 3.627v13.372c0 .866-.325 1.353-1.083 1.787L29.66 63.46c-1.2.704-2.057.704-3.248 0L1.136 48.854C.336 48.42 0 47.77 0 46.904V17.13c0-.866.325-1.462 1.083-1.895zm-.054 33.24c0-.596-.162-.92-.65-1.2L2.806 19.24v26.473c0 .65.217.974.758 1.3l22.9 13.2zm25.77 13.264c.54-.325.758-.596.758-1.245l-.054-11.098-10.72 6.117c-1.516.866-2.544.27-2.544-1.462V27.9c0-.27 0-.596-.054-.974l-9.745 5.63c-.487.27-.596.65-.596 1.137v26.528zM27.33 30.06a.97.97 0 0 0 1.191 0l5.63-3.248 4.114-2.436-1.408-.812-9.528-5.522c-1.2-.704-1.2-2.003 0-2.707l4.98-2.87c.54-.27.812-.65.704-1.245-.054-.27 0-.487 0-.758-.162-1.408.054-2.6 1.57-3.194.054 0 .108-.108.162-.217l-6.28-3.627c-.54-.325-.866-.27-1.353 0L4.32 16.696zM58.243 9.063c-.217-.162-.27-.217-.325-.217l-9.582-5.522a1.24 1.24 0 0 0-.974.054l-8.5 4.872-1.3.758c.217.108.27.162.325.217l9.582 5.522c.217.108.704.054.974-.054l4.114-2.328 5.684-3.302zm1.03 14.726c.27-.162.433-.596.433-.92.054-3.465 0-6.93 0-10.45 0-.217-.054-.433-.054-.65h-.27L49.8 17.345c-.27.162-.433.596-.433.92v11.207zM36.036 11.607v7.417c0 .54.217.866.65 1.083l5.1 2.923c.704.38.974.92.974 1.678v2.166c0 .217.054.54.217.65 1.083.704 2.22 1.3 3.4 2.003.054-.27.108-.38.108-.487V18.104c0-.27-.27-.65-.54-.812zm6.767 19.22v6.334l8.662-5.035c-.054-.108-.108-.217-.162-.27-.217.054-.433.162-.596.217-.596.325-1.2.65-1.732 1.03-.704.487-1.408.487-2.166.054-1.3-.812-2.653-1.516-4.006-2.328zM30.84 16.697c.712.432 1.434.847 2.166 1.245V15.4c-.695.476-1.42.91-2.166 1.3z" stroke="none" fill="#000" fill-rule="nonzero"/></symbol></svg>